<svg viewBox="0 0 512 512" xmlns="http://www.w3.org/2000/svg" fill-rule="evenodd" clip-rule="evenodd" stroke-linejoin="round" stroke-miterlimit="2"><g fill="#3448c5" fill-rule="nonzero"><path d="M405.343 210.693c-21.045-65.997-82.54-111.27-151.81-111.77-58.25-.334-112.116 31.666-139.683 82.982C57.452 192.013 16 241.552 16 298.85c0 46.326 27.094 88.6 69.182 107.949l2.982 1.351h.2v-33.797C62.131 358.249 46.1 329.596 46.1 298.821c0-45.074 34.382-83.333 79.202-88.128l8.35-.875 3.658-7.515c21.169-44.863 66.617-73.52 116.223-73.28 59.476.42 111.444 41.598 125.448 99.404l2.863 11.371h11.929c39.742.816 72.024 33.65 72.167 73.4 0 28.032-16.183 50.975-43.738 62.585v32.048l1.988-.636C468.485 392.682 496 356.658 496 313.2c-.374-51.778-39.312-95.806-90.657-102.506z"/><path d="M195.243 404.253l6.6 6.6a1.316 1.316 0 01-.915 2.227h-52.087c-13.09 0-23.857-10.768-23.857-23.857V288.069c0-.72-.593-1.312-1.312-1.312h-11.146c-.72 0-1.312-.592-1.312-1.312 0-.342.131-.668.37-.915l44.215-44.215a1.312 1.312 0 011.869 0l44.175 44.215a1.316 1.316 0 01-.915 2.227h-11.292c-.727 0-1.332.584-1.352 1.312v99.404a23.853 23.853 0 006.959 16.78zM292.937 404.253l6.64 6.6c.239.247.37.573.37.915 0 .72-.592 1.312-1.312 1.312h-51.981c-13.09 0-23.857-10.768-23.857-23.857v-75.587c0-.728-.584-1.332-1.312-1.352h-11.252a1.316 1.316 0 01-.915-2.227l44.175-44.135a1.312 1.312 0 011.87 0l44.214 44.056c.239.246.37.572.37.914 0 .72-.592 1.312-1.312 1.312H287.33a1.356 1.356 0 00-1.312 1.352v73.917a23.86 23.86 0 006.918 16.78zM390.671 404.253l6.6 6.6a1.316 1.316 0 01-.915 2.227h-52.126c-13.09 0-23.857-10.768-23.857-23.857v-50.22c0-.719-.593-1.311-1.312-1.311h-11.15c-.72 0-1.312-.593-1.312-1.312 0-.362.151-.708.414-.955l44.215-44.175c.238-.246.568-.39.914-.39.346 0 .676.144.915.39l44.215 44.175c.262.247.413.593.413.955 0 .72-.592 1.312-1.312 1.312h-11.348c-.72 0-1.312.592-1.312 1.312v48.47a23.853 23.853 0 006.958 16.779z"/></g></svg>