<svg fill="none" xmlns="http://www.w3.org/2000/svg" viewBox="0 0 512 512"><g clip-path="url(#prefix__clip0_5_17)"><g clip-path="url(#prefix__clip1_5_17)"><path fill-rule="evenodd" clip-rule="evenodd" d="M507.307 106.752h-4.864a46.653 46.653 0 00-43.025 28.969 46.66 46.66 0 00-3.482 17.879v104.789c0 20.907-17.152 37.867-37.547 37.867a38.785 38.785 0 01-31.402-16.491l-106.07-152.832a46.865 46.865 0 00-38.613-20.266c-24.192 0-45.952 20.736-45.952 46.357v105.387c0 20.906-17.003 37.866-37.547 37.866-12.16 0-24.234-6.165-31.402-16.49L8.704 108.757C6.016 104.917 0 106.816 0 111.531v91.392c0 4.608 1.408 9.088 4.01 12.885l116.801 168.299c6.912 9.941 17.066 17.322 28.821 20.01 29.376 6.742 56.427-16.085 56.427-45.162V253.653c0-20.906 16.789-37.866 37.546-37.866h.043c12.501 0 24.213 6.144 31.403 16.49L381.12 385.088a45.872 45.872 0 0038.613 20.267c24.704 0 45.888-20.758 45.888-46.358V253.632c0-20.907 16.79-37.867 37.547-37.867h4.139c2.602 0 4.693-2.133 4.693-4.736v-99.562a4.7 4.7 0 00-1.366-3.34 4.705 4.705 0 00-3.327-1.396v.021z" fill="#000"/></g></g><defs><clipPath id="prefix__clip0_5_17"><path fill="#fff" d="M0 0h512v512H0z"/></clipPath><clipPath id="prefix__clip1_5_17"><path fill="#fff" d="M0 0h512v512H0z"/></clipPath></defs></svg>